<svg width="69" height="64" viewBox="0 0 69 64" fill="none" xmlns="http://www.w3.org/2000/svg">
<g id="Group 10">
<path id="Ellipse 8" d="M36.5744 32.7111C36.5744 41.205 34.5509 48.8459 31.3314 54.3294C28.0982 59.8363 23.7767 63 19.204 63C14.6312 63 10.3097 59.8363 7.07653 54.3294C3.85707 48.8459 1.83362 41.205 1.83362 32.7111C1.83362 24.2173 3.85707 16.5763 7.07653 11.0928C10.3097 5.58594 14.6312 2.42224 19.204 2.42224C23.7767 2.42224 28.0982 5.58594 31.3314 11.0928C34.5509 16.5763 36.5744 24.2173 36.5744 32.7111Z" fill="white" stroke="black" stroke-width="2"/>
<path id="Ellipse 9" d="M67.8629 31.2889C67.8629 39.7827 65.8395 47.4237 62.62 52.9072C59.3868 58.4141 55.0653 61.5778 50.4926 61.5778C45.9198 61.5778 41.5983 58.4141 38.3651 52.9072C35.1456 47.4237 33.1222 39.7827 33.1222 31.2889C33.1222 22.795 35.1456 15.1541 38.3651 9.67061C41.5983 4.1637 45.9198 1 50.4926 1C55.0653 1 59.3868 4.1637 62.62 9.67061C65.8395 15.1541 67.8629 22.795 67.8629 31.2889Z" fill="white" stroke="black" stroke-width="2"/>
<ellipse id="Ellipse 10" cx="22.0484" cy="44.9422" rx="7.11111" ry="12.0889" fill="black"/>
<ellipse id="Ellipse 11" cx="53.3369" cy="44.9422" rx="7.11111" ry="12.0889" fill="black"/>
</g>
</svg>
