<svg width="32" height="33" viewBox="0 0 32 33" fill="none" xmlns="http://www.w3.org/2000/svg">
<g id="whatsapp">
<path id="border" fill-rule="evenodd" clip-rule="evenodd" d="M16 31.7961C23.732 31.7961 30 25.5281 30 17.7961C30 10.0642 23.732 3.79614 16 3.79614C8.26801 3.79614 2 10.0642 2 17.7961C2 20.307 2.661 22.6635 3.81847 24.7011L2 31.7961L9.31486 30.0999C11.3014 31.1816 13.5789 31.7961 16 31.7961ZM16 29.6423C22.5425 29.6423 27.8462 24.3386 27.8462 17.7961C27.8462 11.2537 22.5425 5.94999 16 5.94999C9.45755 5.94999 4.15385 11.2537 4.15385 17.7961C4.15385 20.3222 4.9445 22.6636 6.29184 24.5864L5.23077 28.5654L9.27993 27.5531C11.1894 28.8707 13.5046 29.6423 16 29.6423Z" fill="#BFC8D0"/>
<path id="bg" d="M28 16.7961C28 23.4236 22.6274 28.7961 16 28.7961C13.4722 28.7961 11.1269 28.0145 9.19266 26.6798L5.09091 27.7052L6.16576 23.6745C4.80092 21.7268 4 19.355 4 16.7961C4 10.1687 9.37258 4.79614 16 4.79614C22.6274 4.79614 28 10.1687 28 16.7961Z" fill="url(#paint0_linear_0_220)"/>
<path id="border_2" fill-rule="evenodd" clip-rule="evenodd" d="M16 30.7961C23.732 30.7961 30 24.5281 30 16.7961C30 9.06416 23.732 2.79614 16 2.79614C8.26801 2.79614 2 9.06416 2 16.7961C2 19.307 2.661 21.6635 3.81847 23.7011L2 30.7961L9.31486 29.0999C11.3014 30.1816 13.5789 30.7961 16 30.7961ZM16 28.6423C22.5425 28.6423 27.8462 23.3386 27.8462 16.7961C27.8462 10.2537 22.5425 4.94999 16 4.94999C9.45755 4.94999 4.15385 10.2537 4.15385 16.7961C4.15385 19.3222 4.9445 21.6636 6.29184 23.5864L5.23077 27.5654L9.27993 26.5531C11.1894 27.8707 13.5046 28.6423 16 28.6423Z" fill="white"/>
<path id="phone" d="M12.5 10.2962C12.1672 9.62757 11.6565 9.68676 11.1407 9.68676C10.2188 9.68676 8.78125 10.791 8.78125 12.8462C8.78125 14.5305 9.52345 16.3743 12.0244 19.1324C14.438 21.7941 17.6094 23.1711 20.2422 23.1242C22.875 23.0773 23.4167 20.8117 23.4167 20.0466C23.4167 19.7075 23.2062 19.5383 23.0613 19.4923C22.1641 19.0617 20.5093 18.2594 20.1328 18.1087C19.7563 17.9579 19.5597 18.1618 19.4375 18.2727C19.0961 18.5981 18.4193 19.557 18.1875 19.7727C17.9558 19.9884 17.6103 19.8793 17.4665 19.7977C16.9374 19.5854 15.5029 18.9473 14.3595 17.8389C12.9453 16.468 12.8623 15.9964 12.5959 15.5766C12.3828 15.2407 12.5392 15.0346 12.6172 14.9446C12.9219 14.593 13.3426 14.0503 13.5313 13.7805C13.7199 13.5108 13.5702 13.1013 13.4803 12.8462C13.0938 11.7493 12.7663 10.831 12.5 10.2962Z" fill="white"/>
</g>
<defs>
<linearGradient id="paint0_linear_0_220" x1="26.5" y1="7.79614" x2="4" y2="28.7961" gradientUnits="userSpaceOnUse">
<stop stop-color="#5BD066"/>
<stop offset="1" stop-color="#27B43E"/>
</linearGradient>
</defs>
</svg>
